HIERARCHY
ROOT Hips
{
 OFFSET 0.000000 0.000000 0.000000
 CHANNELS 6 Xposition Yposition Zposition Yrotation Xrotation Zrotation
 JOINT Chest
 {
  OFFSET 0.000000 9.585900 0.002600
  CHANNELS 3 Yrotation Xrotation Zrotation
  JOINT Chest2
  {
   OFFSET 0.000000 9.601200 -0.005300
   CHANNELS 3 Yrotation Xrotation Zrotation
   JOINT Chest3
   {
    OFFSET 0.000000 9.561800 0.000000
    CHANNELS 3 Yrotation Xrotation Zrotation
    JOINT Chest4
    {
     OFFSET 0.000000 9.552100 0.000000
     CHANNELS 3 Yrotation Xrotation Zrotation
     JOINT Neck
     {
      OFFSET 0.000000 14.453000 0.000000
      CHANNELS 3 Yrotation Xrotation Zrotation
      JOINT Head
      {
       OFFSET 0.000000 8.936500 -0.011300
       CHANNELS 3 Yrotation Xrotation Zrotation
       End Site
       {
        OFFSET 0.000000 17.073600 -0.006000
       }
      }
     }
     JOINT RightCollar
     {
      OFFSET -2.921100 9.558500 0.000000
      CHANNELS 3 Yrotation Xrotation Zrotation
      JOINT RightShoulder
      {
       OFFSET -13.519700 0.000000 0.000000
       CHANNELS 3 Yrotation Xrotation Zrotation
       JOINT RightElbow
       {
        OFFSET 0.000000 -29.696600 0.000000
        CHANNELS 3 Yrotation Xrotation Zrotation
        JOINT RightWrist
        {
         OFFSET 0.000000 -24.004700 0.000000
         CHANNELS 3 Yrotation Xrotation Zrotation
         End Site
         {
          OFFSET 0.000000 -17.728500 0.000000
         }
        }
       }
      }
     }
     JOINT LeftCollar
     {
      OFFSET 2.921100 9.558500 0.000000
      CHANNELS 3 Yrotation Xrotation Zrotation
      JOINT LeftShoulder
      {
       OFFSET 13.519700 0.000000 0.000000
       CHANNELS 3 Yrotation Xrotation Zrotation
       JOINT LeftElbow
       {
        OFFSET 0.000000 -29.696600 0.000000
        CHANNELS 3 Yrotation Xrotation Zrotation
        JOINT LeftWrist
        {
         OFFSET 0.000000 -24.004700 0.000000
         CHANNELS 3 Yrotation Xrotation Zrotation
         End Site
         {
          OFFSET 0.000000 -17.728500 0.000000
         }
        }
       }
      }
     }
    }
   }
  }
 }
 JOINT RightHip
 {
  OFFSET -7.771700 -0.012900 -0.001300
  CHANNELS 3 Yrotation Xrotation Zrotation
  JOINT RightKnee
  {
   OFFSET 0.000000 -40.869800 0.001200
   CHANNELS 3 Yrotation Xrotation Zrotation
   JOINT RightAnkle
   {
    OFFSET 0.000000 -39.717900 0.002100
    CHANNELS 3 Yrotation Xrotation Zrotation
    JOINT RightToe
    {
     OFFSET 0.000000 -4.965400 11.033500
     CHANNELS 3 Yrotation Xrotation Zrotation
     End Site
     {
      OFFSET 0.000000 -1.423100 5.872300
     }
    }
   }
  }
 }
 JOINT LeftHip
 {
  OFFSET 7.771700 -0.012900 -0.001300
  CHANNELS 3 Yrotation Xrotation Zrotation
  JOINT LeftKnee
  {
   OFFSET 0.000000 -40.869800 0.001200
   CHANNELS 3 Yrotation Xrotation Zrotation
   JOINT LeftAnkle
   {
    OFFSET 0.000000 -39.717900 0.002100
    CHANNELS 3 Yrotation Xrotation Zrotation
    JOINT LeftToe
    {
     OFFSET 0.000000 -4.965400 11.033500
     CHANNELS 3 Yrotation Xrotation Zrotation
     End Site
     {
      OFFSET 0.000000 -1.423100 5.872300
     }
    }
   }
  }
 }
}
MOTION
Frames: 9
Frame Time: 0.008333
0.000000 85.388000 0.000000 0.000000 -5.767877 0.000000 0.000000 11.653817 0.000000 0.000000 -5.885947 0.000000 0.000000 -0.000000 0.000000 0.000000 -0.000000 0.000000 0.000000 12.528835 0.000000 0.000000 0.711642 0.000000 0.000000 -0.000000 0.000000 0.000000 0.000000 -90.000000 0.000000 -2.309062 0.000000 0.000000 2.309062 0.000000 0.000000 -0.000000 0.000000 0.000000 -0.000000 90.000000 0.000000 -2.309062 0.000000 0.000000 2.309062 0.000000 0.000000 8.520406 0.000000 0.000000 1.905762 0.000000 -0.000000 -4.658285 0.000000 0.000000 -0.000000 0.000000 0.000000 8.520406 0.000000 0.000000 1.905762 0.000000 -0.000000 -4.658285 0.000000 0.000000 -0.000000 0.000000
6.473721 50.076686 44.242631 172.824153 -32.259127 -6.906040 6.026233 18.093494 7.114074 0.610312 2.261997 0.625356 1.058826 3.745954 1.060278 4.900664 15.757248 5.021619 -2.563252 16.269178 1.001397 -5.102741 -5.459818 2.764522 -0.589421 -2.632317 -4.097873 3.163351 -5.556227 -1.449654 176.894239 -70.486606 174.847869 0.317325 -7.083195 37.944595 -10.490116 -0.177321 -0.772556 9.097233 -5.812414 -0.387074 -172.180717 -63.793523 178.223047 27.418138 5.366018 -36.624382 0.166885 -48.394101 10.776197 -107.296753 84.815119 -95.771132 -1.147818 -11.993329 -3.460716 -0.244272 0.974835 -0.123630 -10.183009 -52.095218 17.022171 -153.487321 80.688295 -160.351405 1.402250 -15.465613 6.951527 -0.486009 -0.787946 -0.197468
6.494598 50.074216 44.241476 172.702626 -32.218960 -6.946429 6.132931 18.034125 7.203288 0.583746 2.248422 0.613997 1.069020 3.728273 1.059936 4.910798 15.710758 5.019089 -2.552710 16.378159 0.998862 -5.066509 -5.254417 2.746481 -0.533269 -2.693327 -4.095456 3.196463 -5.716528 -1.593410 176.076913 -70.120970 175.679540 0.027800 -7.510285 36.770769 -10.492389 -0.238798 -0.716594 9.081752 -5.859592 -0.381005 -172.144469 -63.469651 178.141842 27.985382 4.931328 -35.128627 0.254775 -48.467239 10.951521 -106.942453 84.801903 -95.412223 -1.167432 -12.017984 -3.461331 -0.268462 1.031313 -0.077603 -10.236536 -52.132919 17.230830 -153.523768 80.651057 -160.395203 1.451406 -15.473846 6.965740 -0.543875 -0.809383 -0.225127
6.510050 50.072825 44.234238 172.627034 -32.190393 -6.975797 6.189527 17.993805 7.255656 0.580979 2.241319 0.612426 1.001946 3.673334 1.030325 4.962941 15.691525 5.035511 -2.543950 16.464576 0.977094 -5.039035 -5.095605 2.698991 -0.462008 -2.749720 -4.091624 3.242371 -5.891875 -1.757029 175.148154 -69.748469 176.597040 -0.193765 -7.919198 35.590412 -10.480319 -0.312349 -0.659232 9.051304 -5.898554 -0.371968 -171.998370 -63.129607 177.975346 28.496281 4.462475 -33.687676 0.306902 -48.517774 11.077779 -106.705164 84.818744 -95.193123 -1.184839 -12.005460 -3.428450 -0.315268 1.043805 -0.070021 -10.297532 -52.160320 17.404651 -153.459981 80.599812 -160.360248 1.452336 -15.475382 6.983660 -0.550285 -0.833998 -0.230916
6.531007 50.072348 44.225811 172.548209 -32.161365 -7.039566 6.223875 17.951680 7.323329 0.563431 2.220053 0.602987 1.001426 3.648836 1.027031 4.974263 15.639355 5.036180 -2.501173 16.563440 0.964120 -5.043888 -5.007814 2.610592 -0.379318 -2.779636 -4.076447 3.310689 -6.089476 -1.952787 174.178196 -69.380825 177.532767 -0.369777 -8.289964 34.440056 -10.448049 -0.375082 -0.609651 9.009070 -5.944186 -0.353247 -171.775551 -62.780172 177.744348 28.955053 3.963142 -32.295658 0.347022 -48.565650 11.252366 -106.336771 84.780429 -94.805475 -1.226342 -12.009680 -3.432063 -0.314613 1.066451 -0.025823 -10.420960 -52.182280 17.657788 -153.310180 80.531958 -160.246470 1.463633 -15.482576 6.997802 -0.553827 -0.857804 -0.235993
6.551445 50.071372 44.217000 172.454976 -32.121963 -7.098748 6.232900 17.890404 7.367135 0.575281 2.206349 0.606463 1.051506 3.656074 1.042954 4.937924 15.581771 5.027010 -2.516010 16.589952 0.901474 -5.018461 -4.942852 2.521873 -0.309734 -2.821890 -4.051590 3.399177 -6.314247 -2.187234 173.254509 -69.026124 178.419171 -0.513472 -8.602926 33.357096 -10.418890 -0.462252 -0.573060 8.970943 -6.008799 -0.322142 -171.515816 -62.428692 177.471095 29.367948 3.443360 -30.958839 0.416650 -48.629711 11.449323 -105.833659 84.748723 -94.324469 -1.269805 -12.019088 -3.359171 -0.324973 1.108826 -0.026145 -10.553361 -52.213828 17.919896 -153.130192 80.460655 -160.104952 1.498034 -15.485765 7.004000 -0.558690 -0.886427 -0.241097
6.567111 50.070700 44.205490 172.378178 -32.081754 -7.144245 6.229288 17.829696 7.392836 0.589423 2.197249 0.611630 1.030876 3.628326 1.036257 4.953131 15.552976 5.040057 -2.538745 16.586778 0.826907 -4.993502 -4.916283 2.416385 -0.243395 -2.851570 -4.014224 3.495741 -6.565503 -2.459335 172.437008 -68.687767 179.214585 -0.651911 -8.841517 32.363050 -10.382920 -0.539856 -0.553834 8.953778 -6.099966 -0.278243 -171.255587 -62.074497 177.181032 29.746774 2.919973 -29.685149 0.472277 -48.687758 11.610295 -105.428500 84.709205 -93.953719 -1.265845 -12.028767 -3.277769 -0.380389 1.143766 -0.046945 -10.667177 -52.247128 18.130675 -152.938537 80.392645 -159.945100 1.541440 -15.489259 7.005477 -0.555751 -0.915367 -0.245297
6.576416 50.068767 44.193769 172.331994 -32.021791 -7.177324 6.185703 17.754898 7.383566 0.603459 2.187759 0.617845 1.006731 3.598083 1.030096 4.963209 15.522727 5.056191 -2.546236 16.574322 0.757942 -4.983933 -4.942348 2.291836 -0.178411 -2.869112 -3.964943 3.588577 -6.838111 -2.763075 171.754118 -68.373528 179.896084 -0.808798 -9.017448 31.450654 -10.340356 -0.603339 -0.548284 8.963731 -6.215048 -0.218504 -170.996741 -61.713123 176.878764 30.106530 2.406839 -28.481130 0.508330 -48.757413 11.720879 -105.144715 84.650570 -93.700425 -1.228005 -12.045359 -3.216522 -0.425723 1.175334 -0.092663 -10.745166 -52.303261 18.263545 -152.878040 80.348716 -159.895597 1.576115 -15.499683 7.007523 -0.563940 -0.933845 -0.252569
6.585245 50.066174 44.183496 172.247754 -31.948290 -7.199332 6.194105 17.661785 7.395511 0.599128 2.174123 0.617639 0.999746 3.576685 1.029840 4.946395 15.479251 5.066438 -2.554251 16.542315 0.683150 -4.973965 -5.005001 2.157440 -0.114550 -2.876855 -3.907664 3.676507 -7.123627 -3.091182 171.215096 -68.087851 -179.550247 -0.984999 -9.161659 30.618307 -10.295381 -0.653387 -0.551285 9.004857 -6.343540 -0.145741 -170.713514 -61.340997 176.541346 30.464849 1.910325 -27.356301 0.517083 -48.842212 11.846829 -105.013416 84.604860 -93.624339 -1.090528 -12.069101 -3.126924 -0.549927 1.210641 -0.166609 -10.872966 -52.369902 18.473764 -152.756872 80.298115 -159.828403 1.614840 -15.467489 7.042852 -0.579250 -0.982668 -0.286833
